# xmcd
#
# Track frame offsets: 
#        150
#        12300
#        25902
#        38980
#        52450
#        63940
#        79890
#        107722
#        122302
#        133112
#        149797
#        166230
#
# Disc length: 2522 seconds
#
# Revision: 2
# Processed by: cddbd v1.5.2PL0 Copyright (c) Steve Scherf et al.
# Submitted via: ExactAudioCopy v0.95b4
#
DISCID=ab09d80c
DTITLE=John Hammond - Trouble No More
DYEAR=1993
DGENRE=Blues
TTITLE0=Just Your Fool
TTITLE1=Who Will Be Next
TTITLE2=I'll Change My Style
TTITLE3=Too Tired
TTITLE4=That Nasty Swing
TTITLE5=Trouble Blues
TTITLE6=Love Changin' Blues
TTITLE7=It's Too Late Brother
TTITLE8=Wild Man On The Loose
TTITLE9=Homely Girl
TTITLE10=Baby How Long
TTITLE11=Fool's Paradise
EXTD=
EXTT0=
EXTT1=
EXTT2=
EXTT3=
EXTT4=
EXTT5=
EXTT6=
EXTT7=
EXTT8=
EXTT9=
EXTT10=
EXTT11=
PLAYORDER=
